<svg aria-hidden="true" style="width:0;height:0;position:absolute;overflow:hidden" xmlns="http://www.w3.org/2000/svg"><defs><symbol id="icon-burger" viewBox="0 0 32 32"><path stroke="#fff" style="stroke:var(--color1,#fff)" stroke-linecap="round" stroke-width="2" d="M6 10h20M6 16h20M6 22h20"/></symbol><symbol id="icon__arrow-1" viewBox="0 0 82 32"><path d="M81.414 17.414a2 2 0 0 0 0-2.828L68.686 1.858a2 2 0 1 0-2.828 2.828L77.172 16 65.858 27.314a2 2 0 1 0 2.828 2.828l12.728-12.728zM0 18h80v-4H0v4z"/></symbol><symbol id="icon__arrow-2" viewBox="0 0 102 32"><path d="M101.414 17.414a2 2 0 0 0 0-2.828L88.686 1.858a2 2 0 1 0-2.828 2.828L97.172 16 85.858 27.314a2 2 0 1 0 2.828 2.828l12.728-12.728zM0 18h100v-4H0v4z"/></symbol><symbol id="icon__arrow-3" viewBox="0 0 69 32"><path d="M68.081 17.414a2 2 0 0 0 0-2.829L55.353 1.857a2 2 0 1 0-2.828 2.828l11.314 11.314-11.314 11.314a2 2 0 1 0 2.828 2.828l12.728-12.728zM0 18h66.667v-4H0v4z"/></symbol><symbol id="icon__btn" viewBox="0 0 32 32"><path d="m14.019 17.062-8.5 8.5a1.493 1.493 0 0 1-2.119 0L1.987 24.15a1.495 1.495 0 0 1 0-2.119l6.025-6.025-6.025-6.025a1.495 1.495 0 0 1 0-2.119l1.406-1.425a1.493 1.493 0 0 1 2.119 0l8.5 8.5c.594.588.594 1.538.006 2.125z"/></symbol><symbol id="icon__close" viewBox="0 0 32 32"><path d="m17.253 16 7.369-7.369a.885.885 0 0 0-.047-1.206.89.89 0 0 0-1.206-.047L16 14.747 8.631 7.369a.892.892 0 0 0-1.262 1.262L14.747 16l-7.378 7.369a.891.891 0 0 0-.05 1.304.89.89 0 0 0 1.304-.05l7.378-7.369 7.369 7.369a.885.885 0 0 0 1.206-.047.885.885 0 0 0 .047-1.206l-7.369-7.369z"/></symbol><symbol id="icon__close-big" viewBox="0 0 32 32"><path d="M18.088 16 30.37 3.719a1.481 1.481 0 0 0-2.089-2.089L16 13.911 3.719 1.615a1.487 1.487 0 1 0-2.104 2.104L13.911 16 1.615 28.282a1.484 1.484 0 0 0 .423 2.505 1.472 1.472 0 0 0 1.186-.046c.184-.089.347-.215.48-.37L16 18.09l12.281 12.281a1.477 1.477 0 0 0 2.011-.078 1.485 1.485 0 0 0 .078-2.011L18.088 16z"/></symbol><symbol id="icon-facebook" viewBox="0 0 31 32"><path d="M19.826 16.412h-2.531v9.329H13.46v-9.329h-1.824v-3.279h1.824v-2.122c0-1.517.716-3.893 3.869-3.893l2.841.012v3.183h-2.061c-.338 0-.813.17-.813.894v1.93h2.866l-.335 3.276z"/></symbol><symbol id="icon-github" viewBox="0 0 31 32"><path d="M15.515 7.301c-5.013 0-9.127 4.115-9.127 9.129 0 4.279 3.002 8.165 6.988 9.129v-3.02a2.22 2.22 0 0 1-1.16-.03c-.539-.159-.978-.519-1.303-1.067-.207-.35-.575-.729-.958-.701l-.094-1.066c.829-.071 1.546.505 1.972 1.221.189.318.407.505.686.587.27.079.56.041.898-.078.085-.677.395-.93.629-1.286-2.377-.355-3.325-1.616-3.701-2.612-.498-1.322-.231-2.974.65-4.017.017-.02.048-.074.036-.111-.404-1.221.088-2.23.106-2.338.466.138.542-.139 2.025.763l.256.154c.107.064.073.027.181.019a7.735 7.735 0 0 1 1.915-.269 7.768 7.768 0 0 1 1.942.276l.083.008c-.007-.001.023-.005.073-.035 1.853-1.123 1.786-.756 2.283-.917.018.107.504 1.133.104 2.339-.054.166 1.606 1.687.686 4.128-.376.996-1.323 2.257-3.7 2.612.305.465.671.712.669 1.67v3.77c3.986-.963 6.988-4.85 6.988-9.129 0-5.014-4.114-9.129-9.126-9.129z"/></symbol><symbol id="icon-telegram" viewBox="0 0 32 32"><path d="m12.705 18.734-.308 4.044c.441 0 .631-.177.86-.389l2.066-1.843 4.281 2.926c.785.409 1.338.193 1.55-.674l2.811-12.292c.249-1.083-.42-1.507-1.185-1.241L6.264 15.168c-1.127.408-1.11.995-.192 1.261l4.223 1.226 9.808-5.729c.462-.285.881-.127.536.158l-7.934 6.65z"/></symbol></defs></svg>