<?xml version="1.0" standalone="no"?>
<!DOCTYPE svg PUBLIC "-//W3C//DTD SVG 20010904//EN"
 "http://www.w3.org/TR/2001/REC-SVG-20010904/DTD/svg10.dtd">
<svg version="1.0" xmlns="http://www.w3.org/2000/svg"
 width="130.000000pt" height="130.000000pt" viewBox="0 0 130.000000 130.000000"
 preserveAspectRatio="xMidYMid meet">
<metadata>
Created by potrace 1.14, written by Peter Selinger 2001-2017
</metadata>
<g transform="translate(0.000000,130.000000) scale(0.100000,-0.100000)"
fill="#000000" stroke="none">
<path d="M385 1088 c-55 -30 -105 -96 -105 -137 0 -11 -8 -28 -19 -38 -24 -23
-51 -77 -51 -102 0 -11 -6 -26 -14 -33 -26 -26 -46 -77 -47 -120 -1 -24 -6
-48 -11 -55 -16 -20 -5 -67 19 -78 18 -8 23 -19 25 -65 3 -51 5 -55 30 -58 25
-3 27 -8 33 -60 4 -31 8 -68 10 -82 2 -14 6 -50 10 -80 13 -128 18 -156 27
-168 15 -17 212 -17 226 1 6 7 14 40 17 72 3 33 8 71 10 85 2 14 7 52 10 85 3
33 8 69 10 80 2 11 4 30 4 42 1 16 8 22 29 25 26 3 27 6 30 60 2 32 7 58 12
58 6 0 19 9 30 20 16 16 18 25 10 46 -6 15 -7 39 -2 58 4 17 8 36 7 41 -8 81
-49 138 -151 211 -74 53 -98 91 -99 154 0 48 -14 59 -50 38z m15 -58 c0 -34
29 -93 57 -117 14 -13 52 -42 84 -65 72 -53 109 -108 109 -163 0 -62 -7 -66
-92 -64 -150 4 -275 55 -304 125 -16 37 -11 85 10 116 13 19 15 18 32 -11 31
-52 164 -125 187 -102 13 13 15 12 -66 50 -97 46 -127 104 -95 178 12 28 56
73 71 73 4 0 7 -9 7 -20z m-180 -299 c0 -15 59 -70 97 -90 31 -15 127 -48 148
-51 3 0 46 0 96 0 81 0 90 -2 87 -17 -2 -13 -15 -19 -46 -21 -28 -2 -42 -8
-42 -18 0 -8 9 -14 20 -14 17 0 20 -7 20 -45 l0 -45 -195 0 -195 0 0 45 0 45
155 0 c130 0 155 2 155 15 0 12 -29 15 -177 17 -150 3 -178 5 -178 18 0 9 12
17 30 20 35 6 40 24 8 28 -26 4 -31 37 -12 91 10 28 29 43 29 22z m132 -353
l-22 -22 -22 22 -22 22 44 0 44 0 -22 -22z m148 -3 c-13 -14 -24 -24 -24 -22
-1 1 -10 12 -20 25 l-19 22 43 0 43 0 -23 -25z m-65 -25 c18 -20 18 -21 -6
-46 l-25 -25 -24 26 c-23 24 -23 25 -5 45 23 25 37 25 60 0z m95 -22 c0 -16
-3 -19 -11 -11 -6 6 -8 16 -5 22 11 17 16 13 16 -11z m-172 -51 l22 -23 -25
-24 -25 -24 -20 22 c-24 26 -25 30 -3 54 21 23 25 23 51 -5z m144 6 c24 -21
23 -39 -4 -57 -20 -15 -24 -14 -45 6 l-23 22 22 23 c26 27 26 28 50 6z m-69
-123 c-27 -24 -25 -24 -53 0 l-23 20 23 25 24 26 25 -26 25 -25 -21 -20z m-59
-51 c-7 -12 -57 -7 -66 5 -4 6 0 19 9 28 16 18 17 17 39 -3 13 -12 21 -26 18
-30z m129 28 c9 -23 -8 -38 -41 -35 -37 3 -38 5 -15 30 19 21 49 24 56 5z m-3
-82 c0 -18 5 -17 -95 -19 -73 -1 -94 4 -95 27 0 4 43 7 95 7 78 0 95 -3 95
-15z"/>
<path d="M690 281 c-61 -20 -92 -44 -110 -83 -53 -120 67 -207 254 -184 46 6
56 11 56 27 0 18 2 18 43 -4 33 -17 58 -22 122 -22 103 0 138 16 142 65 1 19
5 51 7 70 11 86 -66 147 -175 137 -33 -3 -75 -14 -94 -26 -27 -16 -35 -17 -35
-6 0 7 -5 17 -10 20 -17 10 -173 15 -200 6z m180 -26 c5 -3 8 -16 6 -28 -3
-12 -5 -25 -5 -29 -1 -4 -25 -7 -55 -7 -63 0 -96 -14 -96 -40 0 -31 28 -45 91
-45 l59 0 0 -32 c0 -37 -19 -44 -115 -39 -116 6 -172 49 -162 125 7 55 43 86
117 101 39 7 145 3 160 -6z m256 -3 c43 -23 70 -76 53 -103 -6 -10 -32 -14
-84 -15 -41 0 -78 -3 -81 -6 -3 -4 6 -14 19 -23 25 -16 56 -16 123 1 20 5 22
3 20 -23 -3 -24 -9 -30 -52 -41 -86 -22 -175 -4 -213 44 -48 61 -9 149 78 174
35 10 112 6 137 -8z m-259 -97 c7 -21 5 -22 -43 -27 -43 -5 -84 5 -84 21 0 23
118 29 127 6z"/>
<path d="M1027 204 c-18 -19 -5 -34 29 -34 28 0 35 3 32 18 -3 17 -48 29 -61
16z"/>
</g>
</svg>
